<?xml version="1.0" standalone="no"?>
<!DOCTYPE svg PUBLIC "-//W3C//DTD SVG 20010904//EN"
 "http://www.w3.org/TR/2001/REC-SVG-20010904/DTD/svg10.dtd">
<svg version="1.0" xmlns="http://www.w3.org/2000/svg"
 width="1400.000000pt" height="1400.000000pt" viewBox="0 0 1400.000000 1400.000000"
 preserveAspectRatio="xMidYMid meet">
<metadata>
Created by potrace 1.14, written by Peter Selinger 2001-2017
</metadata>
<g transform="translate(0.000000,1400.000000) scale(0.100000,-0.100000)"
fill="#000000" stroke="none">
<path d="M6678 13995 c-2 -1 -55 -6 -118 -9 -63 -4 -135 -9 -160 -11 -25 -2
-72 -7 -105 -10 -34 -3 -71 -7 -83 -10 -12 -2 -55 -7 -94 -10 -40 -4 -75 -8
-78 -10 -3 -2 -30 -6 -60 -9 -30 -4 -77 -11 -105 -16 -54 -10 -89 -16 -150
-25 -22 -4 -56 -10 -75 -15 -19 -5 -51 -12 -70 -15 -128 -22 -468 -109 -633
-162 -43 -14 -84 -26 -90 -27 -7 -2 -21 -6 -32 -10 -64 -24 -91 -34 -100 -36
-5 -1 -20 -6 -33 -11 -13 -5 -27 -9 -31 -9 -4 0 -34 -11 -67 -23 -32 -13 -97
-39 -144 -57 -72 -27 -156 -62 -245 -100 -104 -44 -449 -213 -550 -269 -59
-33 -88 -50 -190 -107 -27 -15 -52 -32 -53 -36 -2 -4 -8 -8 -13 -8 -6 0 -37
-18 -70 -40 -33 -22 -63 -40 -65 -40 -11 0 -237 -154 -409 -279 -77 -56 -391
-304 -405 -320 -3 -3 -43 -40 -90 -81 -244 -214 -493 -468 -699 -715 -47 -55
-87 -102 -91 -105 -8 -7 -200 -257 -222 -290 -9 -14 -40 -56 -67 -95 -28 -38
-55 -77 -61 -85 -5 -8 -28 -41 -50 -73 -22 -32 -40 -60 -40 -63 0 -2 -16 -27
-35 -54 -19 -27 -35 -52 -35 -56 0 -3 -13 -24 -28 -47 -34 -49 -129 -214 -202
-348 -48 -89 -200 -396 -200 -404 0 -2 -16 -39 -36 -82 -203 -440 -401 -1091
-488 -1606 -3 -15 -10 -53 -15 -85 -6 -31 -13 -79 -17 -107 -3 -27 -8 -57 -9
-65 -2 -9 -6 -43 -10 -75 -4 -33 -8 -71 -10 -85 -2 -14 -7 -56 -10 -95 -4 -38
-8 -86 -10 -105 -27 -240 -27 -907 0 -1200 15 -158 19 -198 30 -280 3 -19 7
-53 10 -75 12 -95 15 -115 30 -198 8 -48 18 -104 21 -125 3 -20 7 -45 10 -54
3 -9 7 -27 9 -40 3 -13 9 -45 15 -73 6 -27 12 -59 14 -70 2 -11 12 -51 21 -90
9 -38 18 -79 21 -90 2 -11 18 -69 35 -130 17 -60 32 -117 34 -125 20 -86 121
-382 201 -587 57 -148 87 -219 146 -353 81 -182 277 -555 365 -695 7 -11 20
-33 29 -49 111 -200 467 -691 659 -910 310 -354 560 -600 865 -851 47 -38 90
-74 96 -80 7 -5 24 -19 40 -30 15 -11 50 -38 78 -60 27 -22 95 -72 151 -112
55 -39 112 -81 127 -92 14 -12 31 -21 37 -21 6 0 11 -4 11 -10 0 -5 6 -10 13
-11 6 0 32 -16 57 -34 25 -19 72 -50 105 -70 33 -20 80 -49 105 -65 25 -16 52
-33 60 -37 8 -3 33 -18 55 -32 245 -153 751 -392 1080 -511 50 -18 117 -43
150 -55 219 -84 655 -199 1000 -265 140 -26 174 -32 280 -46 22 -3 51 -7 65
-10 14 -2 66 -8 115 -14 50 -6 113 -13 140 -16 172 -21 351 -28 690 -28 360
-1 567 10 795 39 19 3 55 7 80 9 74 8 140 17 230 32 47 8 100 17 119 20 18 3
43 8 55 10 11 2 36 7 55 10 18 3 41 7 50 9 124 26 180 39 251 56 47 12 94 23
105 25 11 2 83 22 160 44 77 22 147 42 156 44 44 11 374 125 429 148 14 6 34
14 45 18 71 27 240 97 290 120 33 15 96 43 140 63 82 37 320 157 389 196 22
13 60 34 85 48 25 13 64 35 86 49 22 13 47 27 55 31 8 4 41 24 73 45 32 21 60
38 63 38 8 0 313 206 419 284 97 71 342 263 371 291 6 5 32 28 59 50 174 144
492 455 665 651 213 240 470 571 576 739 10 17 24 36 31 43 7 7 13 17 13 22 0
5 6 15 13 22 7 7 30 42 52 78 21 36 43 67 47 68 4 2 8 7 8 11 0 5 24 48 54 97
89 148 199 351 270 499 37 77 73 151 80 165 21 38 143 330 177 423 136 365
245 737 313 1068 14 70 35 178 39 204 3 17 10 57 16 90 6 33 13 84 16 114 3
29 7 56 9 60 2 3 7 35 11 71 3 36 8 76 9 90 4 32 17 159 22 213 26 304 26 962
0 1182 -2 17 -7 62 -11 100 -7 81 -13 136 -20 185 -5 36 -11 84 -20 155 -3 22
-8 47 -10 55 -2 8 -7 37 -10 64 -3 27 -7 51 -9 55 -2 3 -7 29 -10 56 -4 28
-12 70 -17 95 -6 25 -13 54 -15 65 -6 24 -23 110 -30 145 -9 45 -55 223 -75
294 -12 38 -22 76 -24 85 -8 38 -88 285 -126 391 -23 63 -48 133 -56 155 -8
22 -25 64 -38 93 -14 29 -25 56 -25 61 0 7 -59 146 -106 250 -79 172 -199 405
-319 616 -50 89 -209 340 -217 343 -4 2 -8 8 -8 13 0 10 -34 62 -57 86 -6 7
-21 29 -34 50 -24 39 -274 373 -306 408 -10 11 -50 58 -90 105 -102 120 -114
135 -206 234 -110 120 -260 270 -386 386 -131 120 -110 102 -221 195 -52 44
-97 83 -100 86 -22 25 -357 276 -460 344 -25 17 -51 36 -58 43 -7 6 -17 12
-22 12 -5 0 -15 6 -22 13 -20 18 -76 57 -83 57 -4 0 -25 13 -48 29 -174 119
-565 330 -852 461 -396 181 -905 351 -1336 448 -170 38 -449 88 -599 107 -30
4 -63 9 -73 11 -10 2 -48 6 -85 9 -37 3 -74 8 -82 10 -8 2 -60 7 -115 11 -55
4 -118 9 -140 11 -49 4 -772 12 -777 8z"/>
</g>
</svg>
