<?xml version="1.0" standalone="no"?>
<!DOCTYPE svg PUBLIC "-//W3C//DTD SVG 20010904//EN"
 "http://www.w3.org/TR/2001/REC-SVG-20010904/DTD/svg10.dtd">
<svg version="1.0" xmlns="http://www.w3.org/2000/svg"
 width="1400.000000pt" height="1400.000000pt" viewBox="0 0 1400.000000 1400.000000"
 preserveAspectRatio="xMidYMid meet">
<metadata>
Created by potrace 1.14, written by Peter Selinger 2001-2017
</metadata>
<g transform="translate(0.000000,1400.000000) scale(0.100000,-0.100000)"
fill="#000000" stroke="none">
<path d="M4864 9452 c-136 -188 -238 -409 -275 -597 -20 -99 -17 -284 5 -365
29 -106 80 -192 160 -267 124 -118 265 -171 481 -180 167 -7 299 8 490 57 270
69 429 134 1005 415 402 196 612 285 804 341 686 200 1244 35 1898 -559 111
-101 111 -101 83 -52 -341 592 -694 892 -1178 997 -88 19 -132 22 -312 22
-311 0 -516 -42 -965 -195 -1008 -344 -1020 -347 -1270 -356 -170 -6 -272 13
-389 71 -194 98 -355 318 -451 619 -19 59 -37 107 -40 107 -3 0 -24 -26 -46
-58z"/>
<path d="M7857 8770 c-357 -38 -671 -156 -1280 -484 -252 -136 -452 -236 -571
-285 -351 -146 -645 -184 -910 -117 -247 63 -450 183 -690 408 l-109 102 7
-130 c48 -888 465 -1385 1133 -1352 126 7 239 34 362 86 222 96 413 243 791
607 249 239 380 358 505 459 533 426 1063 534 1670 339 258 -83 535 -215 790
-378 116 -74 118 -74 35 5 -384 366 -801 613 -1178 700 -183 42 -391 57 -555
40z"/>
<path d="M8012 8309 c-246 -29 -517 -127 -727 -264 -129 -83 -194 -141 -489
-428 -321 -313 -412 -397 -551 -510 -289 -234 -479 -314 -840 -355 l-70 -8 40
-12 c59 -18 222 -42 285 -42 30 0 98 7 150 15 237 35 406 118 1060 520 451
277 608 361 860 460 405 158 769 222 1210 212 246 -5 405 -25 610 -76 63 -16
116 -27 118 -26 7 6 -206 140 -326 206 -453 247 -922 355 -1330 308z"/>
<path d="M5810 5336 l0 -836 165 0 165 0 2 356 3 355 207 -293 c114 -161 222
-314 241 -340 l33 -48 240 340 239 340 3 -355 2 -355 165 0 165 0 0 836 c0
558 -3 835 -10 832 -6 -2 -187 -242 -403 -533 -216 -292 -398 -528 -403 -526
-5 1 -185 240 -400 529 -215 289 -396 528 -402 530 -9 3 -12 -200 -12 -832z"/>
<path d="M8825 6160 c-176 -21 -334 -115 -409 -243 -53 -90 -71 -234 -41 -334
39 -132 125 -206 397 -344 275 -140 353 -203 352 -287 0 -52 -27 -87 -92 -119
-52 -25 -67 -28 -167 -28 -100 0 -116 3 -173 29 -41 19 -78 46 -108 79 -52 59
-35 63 -201 -52 l-112 -78 33 -49 c75 -111 210 -202 356 -241 90 -24 310 -24
400 0 173 46 301 143 363 274 31 65 32 74 32 188 0 116 -1 123 -34 189 -67
136 -181 223 -471 356 -95 44 -183 86 -196 95 -42 27 -57 61 -51 113 4 39 12
53 43 80 62 53 161 69 259 42 37 -10 64 -28 102 -66 l52 -52 118 81 c65 44
120 81 121 83 2 1 -8 26 -24 53 -34 64 -115 141 -182 175 -96 49 -242 71 -367
56z"/>
<path d="M11547 6079 c-24 -52 -202 -425 -395 -830 -194 -405 -352 -739 -352
-743 0 -3 80 -6 178 -6 l178 0 54 115 53 115 334 0 334 0 55 -115 54 -115 179
0 180 0 -33 73 c-93 201 -757 1582 -765 1590 -6 6 -26 -26 -54 -84z m157 -859
l95 -205 -196 -3 c-108 -1 -198 -1 -200 2 -3 2 40 99 94 215 54 115 101 207
105 203 3 -4 49 -99 102 -212z"/>
<path d="M2301 6149 c-267 -52 -513 -245 -625 -491 -55 -119 -70 -195 -70
-343 0 -94 5 -148 18 -195 59 -214 186 -389 369 -508 249 -161 572 -183 845
-57 183 85 349 252 429 433 48 109 66 213 61 362 -4 117 -9 146 -35 221 -77
223 -220 389 -425 495 -130 66 -250 94 -402 93 -66 -1 -141 -5 -165 -10z m319
-339 c65 -19 165 -73 209 -113 44 -40 110 -137 130 -192 52 -138 47 -273 -13
-400 -126 -266 -445 -376 -711 -245 -100 49 -143 84 -200 165 -57 80 -85 158
-92 260 -7 100 8 175 53 263 113 226 372 335 624 262z"/>
<path d="M3550 5331 l0 -831 170 0 170 0 2 454 3 454 483 -458 c265 -252 489
-463 497 -470 13 -11 15 83 15 824 l0 836 -165 0 -165 0 0 -455 c0 -250 -2
-455 -5 -455 -3 0 -224 208 -492 463 -267 254 -492 463 -499 465 -12 3 -14
-131 -14 -827z"/>
<path d="M5182 5318 l3 -813 168 -3 167 -2 0 815 0 815 -170 0 -170 0 2 -812z"/>
<path d="M7732 5318 l3 -813 168 -3 167 -2 0 815 0 815 -170 0 -170 0 2 -812z"/>
<path d="M9670 5315 l0 -815 500 0 500 0 0 165 0 165 -335 0 -335 0 2 168 3
167 288 3 287 2 0 160 0 160 -290 0 -290 0 0 160 0 160 335 0 335 0 0 160 0
160 -500 0 -500 0 0 -815z"/>
</g>
</svg>
