<svg width="286" height="216" viewBox="0 0 286 216" fill="none" xmlns="http://www.w3.org/2000/svg">
<path d="M228.109 216C207.948 216 191.243 209.376 177.994 196.128C165.321 182.88 158.985 163.872 158.985 139.104C158.985 112.608 166.473 86.4 181.45 60.48C197.003 34.56 218.604 14.4 246.254 0L266.127 30.24C236.173 50.976 218.316 77.184 212.556 108.864C217.74 106.56 223.789 105.408 230.701 105.408C246.83 105.408 260.079 110.592 270.447 120.96C280.816 131.328 286 144.576 286 160.704C286 176.832 280.528 190.08 269.583 200.448C258.638 210.816 244.814 216 228.109 216ZM69.1239 216C48.9627 216 32.2578 209.376 19.0091 196.128C6.33635 182.88 0 163.872 0 139.104C0 112.608 7.48842 86.4 22.4653 60.48C38.0181 34.56 59.6193 14.4 87.2689 0L107.142 30.24C77.1883 50.976 59.3313 77.184 53.571 108.864C58.7553 106.56 64.8036 105.408 71.716 105.408C87.8449 105.408 101.094 110.592 111.462 120.96C121.831 131.328 127.015 144.576 127.015 160.704C127.015 176.832 121.543 190.08 110.598 200.448C99.6536 210.816 85.8288 216 69.1239 216Z" fill="#051550"/>
</svg>
